<?xml version="1.0" encoding="UTF-8" standalone="no"?>
<svg width="400px" height="400px" viewBox="0 0 400 400" version="1.1" xmlns="http://www.w3.org/2000/svg" xmlns:xlink="http://www.w3.org/1999/xlink" xmlns:sketch="http://www.bohemiancoding.com/sketch/ns">
    <!-- Generator: Sketch 3.0.3 (7891) - http://www.bohemiancoding.com/sketch -->
    <title>ENT Logo square white</title>
    <desc>Created with Sketch.</desc>
    <defs></defs>
    <g id="Page-1" stroke="none" stroke-width="1" fill="none" fill-rule="evenodd" sketch:type="MSPage">
        <g id="PLG-wide" sketch:type="MSArtboardGroup" transform="translate(-159.000000, 0.000000)">
            <rect id="Rectangle-1" stroke="#A0A0A0" opacity="0.483558769" sketch:type="MSShapeGroup" x="179" y="20" width="360" height="360"></rect>
            <g id="PLG-Logo" sketch:type="MSLayerGroup" transform="translate(205.000000, 55.000000)">
                <path d="M210.870407,229.619032 L171.715511,153.592762 L187.94367,153.592762 L218.717826,129.138563 L159.121344,129.138563 L157.775012,126.5239 L194.240252,37.5073372 L212.854316,74.851803 L227.678,37.0812292 L208.652919,0.67 L157.391062,125.778712 L102.452106,19.1046727 L72.995209,85.9256099 L73.5485785,86.1686715 L83.2936945,64.0860742 L116.783571,129.138563 L97.8186392,129.138563 L69.678,153.592762 L129.372726,153.592762 L138.628631,171.570318 L106.626436,249.673115 L88.7933043,213.581967 L72.4518644,251.065468 L91.3546428,288.67 L139.014586,172.321509 L192.011737,275.263602 L221.28919,206.779243 L220.733815,206.542183 L210.870407,229.619032" id="X" fill-opacity="0.149682971" fill="#000000" sketch:type="MSShapeGroup"></path>
                <path d="M147.986293,216.107198 C147.832086,216.347637 147.692459,216.598681 147.578,216.898 C146.961,218.506 146.198,220.171 145.448,221.721 C143.302,226.175 139.827,230.824 134.843,232.21 C133.068,232.704 129.783,231.8 129.643,229.511 C129.595,228.719 130.167,227.692 130.591,227.069 C131.536,225.672 132.9,224.526 134.228,223.509 C141.233,218.142 146.667,215.527 146.778,215.449 C146.794,215.438 146.968,215.366 147.241,215.147 C147.581,214.595 147.774,214.269 147.774,214.269 C147.774,214.269 149.106,211.995 149.348,211.639 C150.248,210.314 151.088,208.831 151.947,207.477 C152.612,206.429 153.368,205.431 153.925,204.316 C154.305,203.554 154.928,202.712 154.838,201.814 C154.816,201.591 154.689,201.408 154.546,201.243 C154.322,200.982 154.051,200.752 153.723,200.633 C153.281,200.476 152.83,200.48 152.379,200.606 C151.637,200.813 150.947,201.241 150.338,201.688 C149.533,202.279 148.771,202.936 148.083,203.65 C146.846,204.934 145.706,206.176 144.883,207.736 C144.055,209.309 143.193,211.262 143.269,213.128 C143.341,214.94 144.259,215.726 145.951,214.349 C147.353,213.207 148.738,211.605 149.172,211.086 L149.079,211.61 C149.079,211.61 146.104,216.016 143.972,215.528 C142.088,215.098 141.587,213.022 142.704,209.754 C141.354,210.774 137.646,213.604 137.646,213.604 C137.35,213.826 137.097,214.499 136.896,214.813 C136.514,215.407 136.136,216 135.757,216.597 C133.948,219.436 132.013,222.191 130.106,224.968 C129.494,225.859 128.877,226.748 128.233,227.615 C126.031,230.586 123.34,233.618 119.647,234.646 C117.873,235.14 114.587,234.232 114.448,231.946 C114.4,231.153 114.971,230.127 115.394,229.502 C116.341,228.107 117.704,226.962 119.032,225.944 C126.038,220.577 134.995,215.23 135.104,215.152 C135.121,215.141 135.288,215.008 135.562,214.79 C135.901,214.233 136.095,213.914 136.095,213.914 C136.095,213.914 135.116,214.663 134.029,215.096 C132.942,215.523 132.123,215.774 131.222,213.876 C130.318,211.975 131.431,208.849 131.431,208.849 L131.502,208.723 C131.422,208.805 131.039,209.462 130.474,210.352 L130.453,209.62 C131.151,208.69 131.697,207.939 131.86,207.674 C131.86,207.674 133.476,205.142 133.643,204.888 C133.81,204.633 135.623,202.461 135.258,200.995 C134.892,199.531 132.791,201.239 132.791,201.239 C132.791,201.239 133.096,200.509 134.232,200.053 C135.368,199.593 136.102,200.821 136.099,201.599 C136.096,202.37 135.175,204.272 134.655,205.387 C134.138,206.497 131.823,210.387 132.386,213.541 C132.949,216.697 136.901,212.393 136.901,212.393 C136.901,212.393 142.136,204.874 142.687,202.235 C142.687,202.235 142.897,200.806 142.243,200.702 C141.592,200.593 144.198,199.998 143.404,202.918 C142.612,205.835 141.245,207.85 140.652,209.013 C140.153,209.998 138.842,211.806 138.257,212.635 C139.634,211.536 142.17,209.5 143.041,208.815 C143.041,208.815 143.149,208.582 143.231,208.396 C143.739,207.225 144.231,206.355 144.945,205.492 C146.156,204.028 147.628,202.761 149.185,201.654 C150.477,200.735 152.668,199.274 154.282,200.451 C154.431,200.558 154.575,200.676 154.712,200.8 C155,201.06 155.301,201.38 155.428,201.759 C155.451,201.834 155.47,201.908 155.48,201.985 C155.543,202.483 155.447,202.996 155.315,203.473 C155.081,204.345 154.735,205.182 154.306,205.971 C153.558,207.347 152.604,208.616 151.788,209.949 C150.973,211.285 150.155,212.668 149.325,213.963 C149.225539,214.117767 149.107974,214.322267 148.990408,214.529209 C151.244764,212.580858 156.532486,208.204218 158.639,204.148 L158.715,203.943 C158.715,203.943 156.578,203.664 157.281,202.085 C157.982,200.511 159.398,200.51 159.665,200.877 C159.94,201.258 159.943,202.044 159.625,202.946 C159.625,202.946 160.827,203.016 164.035,201.202 C167.242,199.388 168.278,201.271 168.162,202.052 C168.162,202.052 168.127,202.708 167.465,203.742 C166.777,204.81 164.627,208.44 164.379,208.852 C164.131,209.265 161.761,213.889 162.892,214.421 C163.901,214.894 166.381,213.388 167.554,212.533 C167.572,212.521 167.593,212.507 167.61,212.492 L167.858,213.144 C167.845,213.152 167.822,213.17 167.806,213.181 C167.038,213.722 163.751,215.77 162.458,215.354 C160.623,214.765 161.426,211.23 162.022,209.945 C162.617,208.661 165.447,203.821 166.276,202.469 C167.102,201.115 166.409,200.538 163.519,202.282 C160.63,204.028 159.309,203.915 159.309,203.915 L159.221,204.093 C158.258,205.818 157.072,207.5 155.621,209.081 C152.790971,212.174697 149.424995,214.81446 147.986293,216.107198 L147.986293,216.107198 Z M115.828149,211.136989 C114.956102,212.379928 110.951781,217.90419 109.114,217.246 C107.385,216.626 108.354,213.873 109.173,211.571 C105.59,214.966 102.126,217.492 102.126,217.492 C102.126,217.492 102.104,217.465 102.164,217.41 C102.951,216.675 108.608,211.473 108.969,211.18 C109.398,210.835 109.36,210.869 109.36,210.869 L109.451,210.786 C109.511,210.615 109.567,210.447 109.618,210.287 C110.4,207.867 118.016,194.364 118.016,194.364 C118.016,194.364 122.818,185.637 121.708,190.613 C120.599,195.591 117.963,201.41 113.57,206.879 C113.015,207.569 112.418,208.255 111.799,208.925 C110.935,210.595 108.483,215.543 109.197,216.619 C110.006115,217.840397 115.680646,210.654759 116.223893,209.915816 C116.335722,209.608538 116.459376,209.292506 116.595,208.968 C117.135,207.679 117.654,206.724 118.413,205.774 C119.696,204.168 121.256,202.775 122.907,201.558 C124.276,200.551 126.602,198.947 128.316,200.24 C129.655,201.252 129.594,201.703 129.594,201.703 L129.63,201.675 C130.053,201.327 130.583,199.577 130.583,199.577 C130.583,199.577 130.981,200.391 130.479,201.228 C129.98,202.067 127.487,205.435 126.418,207.338 C125.346,209.241 124.068,213.102 124.29,214.367 C124.514,215.635 125.166,216.18 126.473,214.681 C127.324,213.705 129.151,211.355 130.453,209.62 L130.474,210.352 C129.125,212.472 126.731,215.931 124.891,216.174 C122.278,216.524 123.162,212.355 123.162,212.355 C123.162,212.355 119.652,217.348 117.39,216.811 C115.519069,216.36558 114.927909,214.337859 115.828149,211.136989 L115.828149,211.136989 Z M100.13834,207.022976 C100.195213,206.933846 100.243982,206.858047 100.284,206.797 C101.051,205.623 103.129,201.038 104.361,198.938 C105.626,196.782 106.998,196.763 106.998,196.763 L107.148,196.626 C106.516,196.288 105.107,197.019 105.107,197.019 C103.616035,197.723974 101.106279,201.80116 98.7734242,205.847361 C98.6256483,205.622012 98.5044382,205.372624 98.414,205.098 C97.485,202.275 99.166,202.503 99.166,202.503 C99.166,202.503 98.17,201.707 97.543,203.426 C97.2432881,204.245308 97.5765018,205.43546 98.459851,206.392788 C97.0503327,208.850988 95.726365,211.240934 94.758,212.794 C92.128,217.018 89.164,218.249 87.315,218.198 C85.465,218.15 84.256,216.036 84.088,215.341 C83.917,214.649 83.899,212.249 85.789,211.896 C87.678,211.546 87.187,213.608 87.003,214.21 C86.82,214.814 85.91,214.443 85.91,214.443 C85.91,214.443 86.019,214.737 86.372,214.878 C86.726,215.02 88.821,214.911 88.155,212.532 C87.488,210.152 84.175,211.342 83.673,213.058 C83.171,214.768 83.429,216.811 85.516,218.201 C87.604,219.592 90.273,218.565 92.914,216.546 C95.2365817,214.766702 98.580054,209.483454 99.8742858,207.439131 C100.765997,207.874112 101.887457,208.091023 103.214,207.91 C107.371,207.345 109.996,206.547 112.493,202.083 C114.991,197.613 109.934,193.608 108.402,193.354 C106.871,193.098 103.762,191.808 98.505,193.182 C93.246,194.551 91.188,196.831 90.232,198.432 C89.279,200.035 88.736,202.121 90.074,204.356 C91.41,206.593 96.981,203.892 97.678,201.148 C98.376,198.403 96.796,199.048 96.796,199.048 C96.796,199.048 97.441,199.484 97.091,200.344 C96.74,201.203 95.422,203.558 93.84,204.102 C92.256,204.645 89.77,205.09 89.807,201.966 C89.846,198.846 92.076,196.432 94.074,195.526 C96.072,194.624 97.834,193.323 102.495,192.967 C107.157,192.612 110.075,194.204 111.36,197.29 C112.645,200.377 109.246,205.668 106.383,206.872 C104.429613,207.693868 101.865896,207.881683 100.13834,207.022976 L100.13834,207.022976 Z M117.074,198.357 C118.185,196.491 120.274,192.2 120.82,191.621 C121.366,191.042 119.059,196.952 117.63,199.43 C116.2,201.906 114.959,204.45 113.424,205.807 C113.424,205.807 115.965,200.228 117.074,198.357 Z M123.273,211.59 C123.273,211.59 121.282,214.002 119.489,215.515 C117.694,217.027 116.72,216.164 116.641,214.171 C116.559,212.116 117.471,209.97 118.348,208.244 C119.22,206.529 120.428,205.163 121.74,203.753 C122.469,202.969 123.277,202.247 124.131,201.599 C124.776,201.108 125.509,200.638 126.298,200.41 C128.453,199.787 129.117,202.092 129.117,202.092 C129.117,202.092 123.648,208.92 123.273,211.59 Z M134.359,216.716 C134.085,217.145 133.809,217.57 133.53,217.997 C132.97,218.853 132.399,219.699 131.824,220.546 C130.721,222.167 129.611,223.783 128.444,225.356 C127.758,226.28 127.052,227.19 126.325,228.086 C124.758,230.012 123.17,232.007 120.964,233.246 C119.113,234.286 116.584,234.659 115.283,232.608 C115.283,232.608 113.658,230.741 118.684,226.853 C123.706,222.966 134.271,216.149 134.271,216.149 L135.116,215.513 C134.814,215.74 134.565,216.392 134.359,216.716 Z M145.195,219.582 C144.789,220.609 144.303,221.647 143.741,222.665 C141.925,225.961 139.33,229.031 136.16,230.81 C134.31,231.853 131.778,232.227 130.479,230.173 C130.479,230.173 128.854,228.307 133.878,224.418 C138.902,220.53 145.95,216.508 145.95,216.508 L146.933,215.878 C146.372,217.057 145.687,218.333 145.195,219.582 Z M225.485,185.582 C224.484,187.295 220.451,194.922 218.991,198.54 C217.675,201.805 215.104,207.356 215.104,207.356 C213.938,209.437 211.227,212.536 210.238,212.916 C209.25,213.291 208.769,212.155 209.021,210.524 C209.276,208.894 211.143,205.097 211.379,204.588 C211.614,204.082 214.686,199.574 216.378,198.428 C218.069,197.281 218.447,199.193 218.447,199.193 L218.714,198.912 C218.219,197.276 216.931,197.687 216.931,197.687 C211.864,198.728 207.808,208.188 207.808,208.188 L207.708,208.238 C207.708,208.238 204.549,212.248 204.137,212.685 C203.724,213.121 202.972,213.892 202.244,212.891 C201.516,211.884 204.226,206.037 204.841,204.821 C205.455,203.604 207.068,201.464 206.655,199.175 C206.241,196.888 203.49,197.643 202.53,198.141 C201.568,198.643 198.486,201.852 198.486,201.852 C198.486,201.852 198.235,202.658 198.781,199.92 C199.33,197.182 196.451,197.861 195.938,198.251 C195.425,198.64 195.414,199.165 195.414,199.165 C195.56,199.011 198.18,197.114 197.753,199.749 C197.328,202.384 195.28,205.988 195.28,205.988 L191.811,210.557 C191.811,210.557 189.282,213.878 188.167,213.359 C187.053,212.842 187.84,210.568 188.116,209.736 C188.392,208.904 191.846,202.016 192.387,199.874 C192.925,197.735 191.084,197.99 191.49,198.228 C191.897,198.464 191.687,198.97 191.687,198.97 C191.265,200.88 187.395,207.233 187.395,207.233 C187.395,207.233 183.274,214.368 180.935,213.76 C178.594,213.15 180.964,208.588 181.179,208.232 C181.394,207.876 183.775,203.737 184.483,202.244 C185.19,200.75 185.604,198.54 184.618,198.118 C183.631,197.696 183.038,198.837 183.038,198.837 C183.433,198.651 184.171,198.206 184.241,198.953 C184.312,199.701 182.724,202.743 182.724,202.743 L178.471,204.774 L178.879,203.301 C180.369,198.948 178.037,198.678 178.037,198.678 C176.511,198.617 175.049,199.125 173.749,199.889 C171.975,200.935 170.55,202.374 169.607,204.207 C169.184,205.029 168.849,205.894 168.5,206.75 C168.106,207.713 167.748,208.7 167.557,209.727 C167.467,210.204 167.409,210.683 167.398,211.169 C167.388,211.607 167.433,212.09 167.554,212.533 C167.572,212.521 167.593,212.507 167.61,212.492 L167.858,213.144 C167.845,213.152 167.822,213.17 167.806,213.181 C167.82,213.206 167.833,213.233 167.843,213.264 C167.951,213.433 168.182,213.795 168.282,213.945 C169.552,215.533 171.382,214.81 172.831,213.476 C174.513,211.93 177.144,208.22 178.091,205.873 L182.072,203.588 C182.072,203.588 178.547,208.806 178.523,211.579 C178.502,214.352 180.805,214.463 180.805,214.463 C180.805,214.463 182.57,215.138 186.656,209.355 C186.656,209.355 184.803,213.893 188.248,213.984 C188.248,213.984 188.694,214.111 190.249,212.799 C191.778,211.513 194.283,207.865 194.283,207.865 C194.283,207.865 192.525,211.988 192.505,213.038 C192.484,214.088 193.583,213.208 193.727,212.977 C193.871,212.748 197.81,203.569 198.761,202.693 C199.71,201.817 201.867,198.56 204.478,198.186 C207.093,197.813 204.979,201.72 204.721,202.352 C204.465,202.983 201.946,207.628 201.714,208.256 C201.482,208.887 199.574,213.04 202.12,213.841 C202.12,213.841 203.207,214.287 204.469,212.953 C205.731,211.618 207.488,209.293 207.488,209.293 C207.488,209.293 206.934,213.53 209.229,213.467 C211.526,213.402 213.634,210.195 214.356,209.15 C214.356,209.15 213.465,213.947 216.333,213.795 C216.333,213.795 218.537,213.982 220.983,210.364 C220.983,210.364 216.482,214.686 215.934,212.882 C215.934,212.882 214.85,211.66 217.07,206.252 L223.011,192.213 C223.011,192.213 225.667,185.391 227.663,184.397 L227.885,184.279 C227.885,184.279 226.486,183.866 225.485,185.582 Z M170.006,214.229 C168.879,214.147 167.739,210.957 171.276,204.751 C174.812,198.543 178.209,199.458 178.209,199.458 C176.639,199.832 175.331,201.118 174.645,202.553 C174.422,203.019 174.366,203.815 174.447,204.321 C174.517,204.749 174.737,205.123 175.074,205.399 C175.583,205.815 176.258,205.964 176.904,205.984 C176.942,205.983 177.319,206.018 177.342,205.967 C174.414,212.419 171.131,214.311 170.006,214.229 Z M177.693,205.096 C177.693,205.096 175.635,206.503 175.495,204.22 C175.356,201.939 178.339,200.057 178.339,200.057 C178.339,200.057 179.774,200.502 177.693,205.096 Z M159.262,201.66 C159.184,202.223 159.074,202.842 158.83,203.043 C158.585,203.247 157.844,203.049 157.841,202.674 C157.836,202.294 158.562,201.396 158.863,201.266 C158.863,201.266 159.339,201.098 159.262,201.66 Z" id="Playground" fill="#1A1918" sketch:type="MSShapeGroup"></path>
                <path d="M32.708,175.723 L21.662,162.599 L8.176,174.061 L19.423,187.424 L39.387,171.082 L39.106,170.728 L32.708,175.723 Z M71.844,175.707 L60.799,162.583 L47.313,174.046 L58.559,187.408 L78.523,171.066 L78.241,170.713 L71.844,175.707 Z M60.282,161.672 L60.282,81.877 L40.038,98.015 L40.319,98.369 L46.932,93.118 L46.932,123.52 L21.199,123.52 L21.16,123.569 L21.16,81.877 L0.918,98.032 L1.199,98.386 L7.812,93.134 L7.812,173.159 L21.16,161.672 L21.16,136.873 L46.932,136.873 L46.932,173.159 L60.282,161.672 Z M93.115,161.672 L93.115,107.259 L72.617,123.533 L72.898,123.886 L79.764,118.435 L79.764,173.159 L93.115,161.672 Z M79.764,92.323 L79.764,105.629 L93.115,94.142 L93.115,81.061 L72.617,97.421 L72.898,97.774 L79.764,92.323 Z M130.142,91.346 L107.443,109.458 L107.725,109.811 L116.789,102.615 L116.789,108.617 L114.966,108.617 L99.635,121.968 L116.789,121.968 L116.789,173.159 L130.142,161.672 L130.142,121.968 L135.03,121.968 L151.797,108.617 L130.142,108.617 L130.142,91.346 Z M168.021,161.672 L168.021,96.111 L173.197,91.88 L184.258,105.023 L197.025,94.275 L185.781,80.913 L168.021,95.504 L168.021,81.877 L147.775,98.032 L148.057,98.386 L154.668,93.136 L154.668,173.159 L168.021,161.672 Z M104.719,175.707 L93.674,162.583 L80.187,174.046 L91.434,187.408 L111.398,171.066 L111.116,170.713 L104.719,175.707 Z M141.75,175.676 L130.705,162.552 L117.219,174.015 L128.465,187.377 L148.429,171.035 L148.148,170.682 L141.75,175.676 Z M179.584,175.676 L168.538,162.552 L155.052,174.015 L166.299,187.377 L186.262,171.035 L185.981,170.682 L179.584,175.676 Z M236.948,118.768 L223.481,129.895 L223.484,172.274 L219.084,175.676 L208.038,162.552 L194.552,174.015 L205.799,187.377 L223.484,172.87 L223.484,172.875 L223.756,172.647 L224.021,172.431 L224.019,172.428 L236.91,161.637 L236.948,118.768 Z M289.948,118.768 L276.481,129.895 L276.484,172.274 L272.084,175.676 L261.038,162.552 L247.552,174.015 L258.799,187.377 L276.484,172.87 L276.484,172.875 L276.756,172.647 L277.02,172.431 L277.019,172.428 L289.91,161.637 L289.948,118.768 Z M225.615,104.067 L207.616,118.683 L207.616,107.259 L187.116,123.533 L187.398,123.886 L194.265,118.435 L194.265,173.159 L207.616,161.672 L207.616,119.218 L212.241,115.666 L223.184,128.875 L236.759,117.518 L225.615,104.067 Z M278.518,104.067 L260.519,118.683 L260.519,107.259 L240.019,123.533 L240.3,123.886 L247.167,118.435 L247.167,173.159 L260.519,161.672 L260.519,119.218 L265.144,115.666 L276.086,128.875 L289.661,117.518 L278.518,104.067 Z M301.23,175.676 L290.185,162.552 L276.698,174.015 L287.945,187.377 L307.908,171.035 L307.627,170.682 L301.23,175.676 Z" id="HITCON" fill="#1A1918" sketch:type="MSShapeGroup"></path>
            </g>
        </g>
    </g>
</svg>