<?xml version="1.0" encoding="UTF-8" standalone="no"?>
<svg width="308px" height="289px" viewBox="0 0 308 289" version="1.1" xmlns="http://www.w3.org/2000/svg" xmlns:xlink="http://www.w3.org/1999/xlink" xmlns:sketch="http://www.bohemiancoding.com/sketch/ns">
    <!-- Generator: Sketch 3.0.3 (7891) - http://www.bohemiancoding.com/sketch -->
    <title>ENT Logo on dark bg trans</title>
    <desc>Created with Sketch.</desc>
    <defs></defs>
    <g id="Page-1" stroke="none" stroke-width="1" fill="none" fill-rule="evenodd" sketch:type="MSPage">
        <g id="ENT-wide" sketch:type="MSArtboardGroup" transform="translate(-205.000000, -55.000000)" fill="#FFFFFF">
            <g id="ENT-Logo" sketch:type="MSLayerGroup" transform="translate(205.000000, 55.000000)">
                <path d="M210.522,229.561 L171.463,153.554 L187.651,153.554 L218.349,129.106 L158.9,129.106 L157.557,126.492 L193.932,37.498 L212.5,74.833 L227.287,37.072 L208.309,0.67 L157.174,125.747 L102.371,19.1 L72.987,85.904 L73.539,86.147 L83.259,64.07 L116.667,129.106 L97.749,129.106 L69.678,153.554 L129.225,153.554 L138.458,171.528 L106.536,249.61 L88.747,213.528 L72.445,251.002 L91.301,288.597 L138.843,172.278 L191.709,275.194 L220.914,206.727 L220.36,206.49 L210.522,229.561" id="X" fill-opacity="0.499094203" sketch:type="MSShapeGroup"></path>
                <path d="M216.044,205.935 C214.006,208.658 210.979,211.048 207.771,212.237 C206.445,212.728 205.18,212.778 205.084,211.139 C205.065,210.824 205.014,208.993 205.363,208.816 C207.982,207.495 210.24,205.97 211.332,203.103 C211.792,201.894 212.32,198.765 210.062,199.248 C209.245,199.423 208.35,200.006 207.725,200.546 C205.956,202.072 204.114,206.945 204.114,206.945 C199.444,212.608 197.216,213.107 197.216,213.107 L197.101,213.052 C197.3,213.147 198.132,212.186 198.243,212.057 C198.648,211.58 198.972,211.039 199.247,210.482 C199.988,208.993 200.526,207.148 200.23,205.489 C199.993,204.159 199.227,202.975 198.376,201.938 C198.353,201.91 197.799,201.293 197.791,201.303 C198.8,199.956 199.804,195.466 196.575,196.916 C195.942,197.201 195.432,197.748 195.272,198.425 C195.088,199.213 195.374,199.802 195.651,200.52 C195.857,201.053 196.624,202.072 196.624,202.072 C196.09,203.088 190.856,209.683 188.841,211.585 C186.826,213.485 185.374,214.343 185.505,213.049 C185.636,211.755 188.399,207.234 188.652,206.727 C189.498,205.026 190.632,203.35 190.95,201.451 C191.275,199.51 189.93,199.466 189.93,199.466 C189.93,199.466 189.135,201.227 188.751,202.006 C188.435,202.644 185.635,208.58 185.465,208.723 C185.465,208.723 181.777,212.353 179.357,213.921 C176.939,215.489 177.853,212.193 178.33,211.262 C179.379,209.22 181.111,207.368 182.521,205.562 C183.655,204.111 185.434,202.322 184.354,200.361 C183.801,199.355 182.912,199.11 182.34,199.201 C181.768,199.29 177.315,200.651 177.315,200.651 C177.701,199.974 178.336,198.073 177.011,198.051 C175.756,198.029 174.706,198.828 174.216,199.924 C173.178,202.236 176.181,201.871 176.181,201.871 C173.603,207.823 167.245,213.614 167.245,213.614 C163.947,216.258 164.439,213.725 164.749,213.132 C165.058,212.539 166.412,210.391 168.456,208.518 C169.931,207.165 171.373,205.679 171.931,203.713 C172.2,202.764 172.16,201.534 171.405,200.794 C170.764,200.167 169.635,199.862 168.765,199.732 C165.066,199.177 161.649,203.244 161.31,203.64 C160.969,204.036 160.967,203.742 160.967,203.742 C161.045,202.814 160.224,202.315 160.224,202.315 C158.796,201.276 157.805,202.717 157.805,202.717 C157.805,202.717 160.367,201.811 159.785,203.926 C158.664,207.998 154.828,213.439 154.147,214.626 C153.986,214.905 153.763,215.142 153.497,215.324 C152.369,216.101 151.293,216.681 150.318,216.189 C149.226,215.638 151.675,211.175 151.929,210.781 C152.183,210.385 154.389,206.891 155.088,205.862 C155.767,204.866 155.817,204.227 155.817,204.227 C155.955,203.466 154.99,201.592 151.801,203.279 C148.61,204.968 147.435,204.867 147.435,204.867 C147.771,203.992 147.79,203.223 147.531,202.843 C147.281,202.478 145.894,202.437 145.165,203.961 C144.434,205.484 146.518,205.816 146.518,205.816 L146.438,206.018 C142.932,212.33 137.89,215.885 137.89,215.885 C137.89,215.885 135.932,217.651 134.296,217.309 C132.661,216.966 133.935,213.183 133.935,213.183 L134.085,213.139 C135.299,212.819 136.345,211.977 137.252,211.136 C137.805,210.624 138.323,210.077 138.819,209.511 C139.979,208.186 141.266,206.682 142.076,204.991 C142.392,204.33 142.713,203.392 141.892,202.932 C141.404,202.658 140.641,203.053 140.234,203.305 C138.533,204.358 136.956,205.689 135.673,207.218 C134.719,208.354 133.866,209.574 133.072,210.824 C132.905,211.09 132.757,211.384 132.568,211.636 C132.313,211.977 128.31,217.014 126.852,217.309 C125.883,217.505 125.65,215.873 125.941,214.774 C126.231,213.676 132.025,199.631 132.025,199.631 C132.749,198.908 139.899,196.565 141.314,196.342 C142.729,196.117 143.119,196.492 143.119,196.492 C142.25,195.363 140.634,195.484 139.546,195.642 C138.697,195.765 132.082,198.071 132.082,198.071 C132.082,198.071 132.25,197.648 132.014,196.893 C131.778,196.137 130.661,196.062 130.661,196.062 L130.778,196.314 C130.955,196.931 130.657,198.703 130.657,198.703 C128.865,199.603 126.883,200.231 124.929,200.693 C123.878,200.942 122.963,200.91 121.97,200.471 C122.121,200.544 122.178,200.994 122.272,201.137 C123.027,202.289 124.876,201.577 125.886,201.282 C127.068,200.935 128.228,200.519 129.381,200.095 C129.64,200 129.897,199.903 130.152,199.804 L130.352,199.689 C130.352,199.689 124.461,212.528 124.365,214.691 C124.341,215.247 122.21,216.846 121.269,217.276 C120.328,217.707 119.098,217.747 119.335,215.581 C119.573,213.416 122.758,207.388 122.758,207.388 C123.096,206.837 124.044,204.911 122.599,204.208 C121.154,203.505 119.594,204.257 119.101,204.431 C118.608,204.604 115.792,206.442 115.792,206.442 C116.699,204.769 115.592,203.41 114.754,203.334 C113.915,203.258 112.397,204.051 111.63,204.669 C110.863,205.288 111.425,205.599 111.425,205.599 C111.425,205.599 114.491,202.831 114.674,204.136 C114.859,205.439 114.055,206.628 113.673,207.264 C113.521,207.517 112.701,208.97 111.766,210.668 C111.189,211.152 106.116,215.854 103.059,218.176 C101.822,219.114 100.095,220.214 98.736,219.69 C96.611,218.873 97.535,215.655 98.04,214.22 C98.83,211.977 99.994,210.038 101.779,208.398 C102.816,207.444 104.184,206.589 105.541,206.175 C105.815,206.091 106.475,206.021 106.445,205.897 C106.445,205.898 106.454,205.752 106.224,205.184 C105.984,204.59 105.801,203.617 105.801,203.617 C105.811,203.537 106.78,203.142 106.883,203.086 C107.164,202.934 107.436,202.769 107.698,202.586 C108.207,202.231 108.68,201.828 109.121,201.393 C110.033,200.492 110.779,199.437 111.483,198.376 C111.915,197.727 114.648,194.151 112.629,193.826 C110.945,193.556 109.922,194.209 108.788,194.996 C107.731,195.73 106.626,196.831 105.853,197.855 C104.773,199.289 104.298,201.32 104.244,203.082 C104.243,203.104 104.262,203.457 104.24,203.466 C103.647,203.705 96.871,205.172 97.716,200.02 C98.56,194.87 106.064,194.799 106.064,194.799 C106.064,194.799 106.075,193.977 103.246,194.509 C100.495,195.025 97.562,196.879 96.988,199.725 C96.761,200.844 96.922,201.989 97.699,202.861 C99.001,204.324 101.739,204.71 104.31,204.055 C104.31,204.055 104.778,205.094 104.938,205.365 C105.104,205.649 96.199,207.765 95.714,215.523 C95.229,223.281 100.924,221.971 105.371,217.394 L110.853,212.337 C110.329,213.307 109.804,214.279 109.308,215.263 C108.964,215.943 108.457,216.69 108.723,217.488 C108.949,218.168 109.754,218.546 110.347,218.869 C110.347,218.869 109.908,217.918 110.498,216.605 C111.086,215.294 114.465,209.278 114.974,208.515 C115.481,207.751 118.717,204.771 120.52,204.67 C122.323,204.569 122.205,205.665 121.612,206.557 C121.019,207.446 118.185,212.066 117.734,214.304 C117.283,216.541 118.452,217.711 119.831,218.077 C121.208,218.443 123.245,217.371 124.26,215.676 C124.26,215.676 124.526,217.996 126.288,218.157 C127.404,218.259 128.215,217.549 129.108,216.697 C130.002,215.846 132.237,213.03 132.237,213.03 C132.237,213.03 131.313,216.649 132.612,217.816 C133.912,218.983 135.164,218.312 135.592,218.182 C136.021,218.051 141.132,215.852 147.01,205.978 L147.101,205.806 C147.101,205.806 148.39,205.953 151.267,204.324 C154.143,202.696 154.807,203.279 153.96,204.58 C153.113,205.881 150.208,210.543 149.59,211.785 C148.972,213.026 148.088,216.463 149.869,217.093 C151.65,217.722 153.268,216.246 153.268,216.246 C153.268,216.246 145.831,229.042 145.116,232.251 C144.401,235.46 146.297,236.06 146.297,236.06 C146.297,236.06 146.354,231.329 151.085,222.73 C156.204,213.425 160.837,205.134 160.837,205.134 C160.837,205.134 162.732,202.671 164.439,201.616 C166.147,200.56 167.081,200.239 168.427,200.368 C169.774,200.495 170.5,200.745 170.547,202.542 C170.583,203.979 169.703,204.851 168.948,205.956 C167.942,207.425 166.546,208.563 165.364,209.884 C164.315,211.056 163.055,212.639 163.242,214.298 C163.43,215.953 165.316,215.683 166.199,215.141 C167.081,214.6 169.27,212.78 172.071,209.354 C174.873,205.929 176.98,201.639 176.98,201.639 C176.98,201.639 181.685,199.656 182.489,199.789 C183.292,199.922 183.501,200.875 182.344,202.6 C181.185,204.323 178.499,207.833 178.076,208.54 C177.653,209.246 175.194,212.64 176.754,214.115 C178.314,215.588 179.334,214.483 180.073,213.914 C180.813,213.346 184.393,210.39 184.789,209.965 C184.789,209.965 183.924,212.361 184.162,213.398 C184.4,214.435 184.947,214.711 185.292,214.765 C185.637,214.816 186.238,214.98 187.972,213.504 C189.704,212.025 191.657,209.705 191.657,209.705 C191.657,209.705 195.394,205.201 197.059,202.546 C198.69,203.454 198.885,205.23 198.677,206.573 C198.456,207.998 197.896,209.531 197.361,210.877 C197.045,211.676 196.584,212.849 195.698,213.206 C194.559,213.666 194.329,213.668 192.714,212.447 C192.714,212.447 192.344,212.647 192.663,213.01 C192.98,213.372 195.144,215.064 197.565,213.806 C197.565,213.806 199.73,212.662 203.612,208.271 C203.612,208.271 203.235,210.832 203.904,211.977 C204.437,212.89 205.325,213.443 206.381,213.498 C207.298,213.547 210.602,211.745 212.73,209.843 C214.86,207.94 216.136,206.58 216.192,206.411 C216.247,206.242 216.044,205.935 216.044,205.935 Z M207.786,202.525 C209.189,200.294 210.558,200.393 210.558,200.393 C211.248,200.85 209.985,204.082 208.937,205.271 C207.89,206.461 205.502,208.309 205.5,208.112 C205.498,207.916 206.385,204.756 207.786,202.525 Z M135.934,208.805 C136.5,208.087 137.959,206.136 138.766,205.427 C139.571,204.716 141.176,203.202 141.44,203.742 C141.44,203.742 141.853,204.891 140.297,206.872 C139.045,208.466 138.474,209.036 137.571,209.875 C136.667,210.713 135.215,212.036 134.47,212.362 C133.725,212.688 135.426,209.449 135.934,208.805 Z M107.308,198.6 C108.051,197.304 108.79,196.502 109.708,195.748 C110.314,195.25 111.22,194.556 112.079,194.724 C112.227,194.753 112.311,194.803 112.426,194.886 C112.927,195.247 112.194,196.353 111.996,196.697 C111.125,198.201 110.189,199.803 108.833,200.945 C108.023,201.628 106.06,203.037 105.927,202.447 C105.792,201.859 107.306,198.604 107.308,198.6 Z M147.115,203.599 C147.023,204.147 146.9,204.748 146.655,204.94 C146.41,205.133 145.689,204.918 145.696,204.549 C145.704,204.18 146.439,203.32 146.736,203.201 C146.736,203.201 147.207,203.049 147.115,203.599 Z M176.996,200.206 C176.826,200.573 176.376,201.279 175.632,201.314 C174.888,201.349 174.715,200.901 175.104,199.998 C175.377,199.364 175.909,199.041 176.553,198.848 C176.78,198.778 177.109,198.736 177.227,198.993 C177.341,199.244 177.235,199.57 177.15,199.814 C177.104,199.945 177.054,200.079 176.996,200.206 Z M196.989,200.867 C196.357,200.729 196.293,199.427 196.538,198.547 C196.727,197.869 197.049,197.57 197.049,197.57 C198.002,197.549 197.958,198.524 197.958,198.524 C197.723,201.026 196.989,200.867 196.989,200.867 Z M190.512,193.641 C192.031,193.674 192.097,195.602 191.098,196.384 C190.728,196.673 190.082,196.644 189.662,196.466 C188.952,196.163 188.739,195.279 188.944,194.611 C189.134,193.99 189.845,193.626 190.512,193.641 Z" id="Enterprise" sketch:type="MSShapeGroup"></path>
                <path d="M32.708,175.723 L21.663,162.599 L8.176,174.061 L19.423,187.424 L39.387,171.082 L39.105,170.728 L32.708,175.723 Z M71.844,175.707 L60.798,162.583 L47.312,174.046 L58.559,187.408 L78.522,171.066 L78.241,170.713 L71.844,175.707 Z M60.282,161.672 L60.282,81.877 L40.038,98.015 L40.319,98.369 L46.932,93.118 L46.932,123.52 L21.2,123.52 L21.16,123.569 L21.16,81.877 L0.917,98.032 L1.199,98.386 L7.811,93.134 L7.811,173.159 L21.16,161.672 L21.16,136.873 L46.932,136.873 L46.932,173.159 L60.282,161.672 Z M93.116,161.672 L93.116,107.259 L72.617,123.533 L72.898,123.886 L79.764,118.435 L79.764,173.159 L93.116,161.672 Z M79.764,92.323 L79.764,105.629 L93.116,94.142 L93.116,81.061 L72.617,97.421 L72.898,97.774 L79.764,92.323 Z M130.142,91.346 L107.443,109.458 L107.725,109.811 L116.789,102.615 L116.789,108.617 L114.966,108.617 L99.635,121.968 L116.789,121.968 L116.789,173.159 L130.142,161.672 L130.142,121.968 L135.03,121.968 L151.797,108.617 L130.142,108.617 L130.142,91.346 Z M168.021,161.672 L168.021,96.111 L173.197,91.88 L184.258,105.023 L197.025,94.275 L185.781,80.913 L168.021,95.504 L168.021,81.877 L147.775,98.032 L148.057,98.386 L154.668,93.136 L154.668,173.159 L168.021,161.672 Z M104.719,175.707 L93.673,162.583 L80.187,174.046 L91.434,187.408 L111.397,171.066 L111.116,170.713 L104.719,175.707 Z M141.75,175.676 L130.705,162.552 L117.218,174.015 L128.465,187.377 L148.429,171.035 L148.147,170.682 L141.75,175.676 Z M179.584,175.676 L168.538,162.552 L155.052,174.015 L166.299,187.377 L186.262,171.035 L185.98,170.682 L179.584,175.676 Z M236.948,118.768 L223.481,129.895 L223.484,172.274 L219.084,175.676 L208.038,162.552 L194.552,174.015 L205.799,187.377 L223.484,172.87 L223.484,172.875 L223.756,172.647 L224.02,172.431 L224.019,172.428 L236.91,161.637 L236.948,118.768 Z M289.948,118.768 L276.481,129.895 L276.484,172.274 L272.084,175.676 L261.038,162.552 L247.552,174.015 L258.799,187.377 L276.484,172.87 L276.484,172.875 L276.756,172.647 L277.021,172.431 L277.019,172.428 L289.91,161.637 L289.948,118.768 Z M225.615,104.067 L207.616,118.683 L207.616,107.259 L187.116,123.533 L187.397,123.886 L194.265,118.435 L194.265,173.159 L207.616,161.672 L207.616,119.218 L212.241,115.666 L223.184,128.875 L236.759,117.518 L225.615,104.067 Z M278.518,104.067 L260.519,118.683 L260.519,107.259 L240.019,123.533 L240.3,123.886 L247.167,118.435 L247.167,173.159 L260.519,161.672 L260.519,119.218 L265.144,115.666 L276.086,128.875 L289.661,117.518 L278.518,104.067 Z M301.23,175.676 L290.185,162.552 L276.698,174.015 L287.945,187.377 L307.908,171.035 L307.627,170.682 L301.23,175.676 Z" id="HITCON" sketch:type="MSShapeGroup"></path>
            </g>
        </g>
    </g>
</svg>